Coordinates
version=1
nRows=29
nColumns=24
inDegrees=yes

Units are S.I. units (second, meters, Newtons, ...)
Angles are in degrees.

endheader
time	pelvis_tilt	pelvis_list	pelvis_rotation	pelvis_tx	pelvis_ty	pelvis_tz	hip_flexion_r	hip_adduction_r	hip_rotation_r	knee_angle_r	ankle_angle_r	subtalar_angle_r	mtp_angle_r	hip_flexion_l	hip_adduction_l	hip_rotation_l	knee_angle_l	ankle_angle_l	subtalar_angle_l	mtp_angle_l	lumbar_extension	lumbar_bending	lumbar_rotation
      1.20400000	     -4.72653863	     -2.24030612	     -9.58285152	     -0.03296320	      0.86703263	      0.30218107	    -16.27439069	      4.76907861	      7.14996404	     -9.77542118	     18.15523465	      9.69523071	     12.26024806	     35.22833403	     -6.84727365	    -11.96760573	     -4.27860387	      4.93755393	     -2.18160268	      0.61845367	     -3.39174083	      3.05583044	     15.81904366
      1.20816667	     -4.75621968	     -2.17565635	     -9.69084561	     -0.02702821	      0.86600619	      0.30209428	    -16.39576340	      4.60933422	      7.15664173	    -10.25193661	     17.98423740	      9.76105198	     15.58056995	     35.39145576	     -6.84005745	    -11.96525741	     -5.05321956	      4.97724043	     -2.12375072	      1.14274782	     -3.31186473	      2.87571870	     15.91544093
      1.21233333	     -4.74983305	     -2.08157017	     -9.77841148	     -0.02100285	      0.86507701	      0.30197295	    -16.56361240	      4.41911518	      7.17715486	    -10.71822405	     17.85141864	      9.73589194	     15.59615986	     35.46253158	     -6.77086631	    -11.87919336	     -5.75006610	      4.88823930	     -2.26894772	      1.14825474	     -3.27994357	      2.66394246	     15.94230528
      1.21650000	     -4.77225108	     -1.98502814	     -9.86150091	     -0.01493329	      0.86414386	      0.30183202	    -16.68131392	      4.23217159	      7.18775373	    -11.22260515	     17.67487779	      9.73785996	     15.63644695	     35.55595631	     -6.69709470	    -11.78982629	     -6.46455182	      4.76383173	     -2.42229672	      1.16168872	     -3.20403324	      2.45169140	     15.97991981
      1.22066667	     -4.85167062	     -1.87576809	     -9.94610251	     -0.00883182	      0.86316648	      0.30167809	    -16.70773784	      4.04246407	      7.20085866	    -11.78492330	     17.49398318	      9.78943170	     15.76840646	     35.69165272	     -6.61158895	    -11.66097350	     -7.16602583	      4.56407773	     -2.62677683	      1.20497657	     -3.05776017	      2.22020994	     16.03266183
      1.22483333	     -4.89554105	     -1.74803479	    -10.01243448	     -0.00264590	      0.86229257	      0.30148537	    -16.77154099	      3.82897385	      7.18389575	    -12.34184322	     17.23889099	      9.79762790	     15.95927910	     35.76559623	     -6.48586755	    -11.54686511	     -7.83807579	      4.28941864	     -2.88085461	      1.26671916	     -2.94143287	      1.96665876	     16.04764197
      1.22900000	     -4.94697496	     -1.62979156	    -10.05689750	      0.00354184	      0.86143831	      0.30122277	    -16.80045596	      3.63093821	      7.13153030	    -12.95328385	     17.01743046	      9.84249830	     16.57796554	     35.83647503	     -6.34095296	    -11.33153953	     -8.49097659	      3.89976720	     -3.37575172	      1.46962872	     -2.83229767	      1.75408552	     16.04703031
      1.23316667	     -4.93946421	     -1.45728547	    -10.07616602	      0.00989767	      0.86074590	      0.30093423	    -16.91037295	      3.36524845	      7.01996760	    -13.50180839	     16.56078972	      9.82142921	     19.58303646	     35.80080412	     -6.11727666	    -11.18559990	     -9.06629318	      3.42974409	     -3.75590256	      2.48519365	     -2.76407520	      1.43215089	     16.01280886
      1.23733333	     -5.00823798	     -1.31137374	    -10.12478993	      0.01622347	      0.85998065	      0.30070026	    -16.90011871	      3.14643373	      7.00664092	    -14.14209391	     16.16000064	      9.72013273	     19.62285731	     35.89997168	     -5.97015899	    -11.19699857	     -9.78863309	      3.10570249	     -3.91665673	      2.49873718	     -2.58858265	      1.16966776	     15.98081804
      1.24150000	     -5.13391051	     -1.14306517	    -10.15533659	      0.02257600	      0.85918665	      0.30042871	    -16.80324273	      2.92154454	      6.98921933	    -14.82284410	     15.73548499	      9.66187042	     19.73780817	     36.02587006	     -5.77897529	    -11.07615203	    -10.42373444	      2.59763886	     -4.26378778	      2.53326872	     -2.35586647	      0.86039819	     15.92707916
      1.24566667	     -5.19703061	     -0.94998100	    -10.15995189	      0.02897095	      0.85852189	      0.30003781	    -16.73517507	      2.65072744	      6.83875983	    -15.56087697	     15.28089555	      9.68958261	     22.82432115	     36.06605188	     -5.51651946	    -10.89537112	    -11.00770675	      2.01257271	     -4.94437879	      3.56038439	     -2.20034226	      0.55581833	     15.84495804
      1.24983333	     -5.31175721	     -0.77033377	    -10.14431305	      0.03540640	      0.85784822	      0.29968577	    -16.62192479	      2.42489062	      6.76383747	    -16.28172218	     14.72591483	      9.57561721	     22.87556549	     36.18392299	     -5.28417859	    -10.78910158	    -11.64682133	      1.43284025	     -5.29320226	      3.57374961	     -1.97233326	      0.24165949	     15.78069579
      1.25400000	     -5.42428838	     -0.58091898	    -10.12157018	      0.04182655	      0.85721652	      0.29925438	    -16.45994203	      2.18292996	      6.62579689	    -17.09546851	     14.23159473	      9.52355015	     23.05676459	     36.29262277	     -5.01617589	    -10.59112175	    -12.26249392	      0.79649901	     -5.96609533	      3.61814579	     -1.74989374	     -0.05140182	     15.67207907
      1.25816667	     -5.53506523	     -0.36780373	    -10.08642494	      0.04829175	      0.85665078	      0.29880345	    -16.27806900	      1.91854573	      6.46537717	    -17.93544537	     13.64789907	      9.48929922	     23.34727585	     36.40009893	     -4.72152208	    -10.43372486	    -12.88069909	      0.17364662	     -6.55239695	      3.68543452	     -1.52869598	     -0.39151017	     15.55925421
      1.26233333	     -5.65670326	     -0.14773231	    -10.03734202	      0.05478057	      0.85611871	      0.29833123	    -16.06127259	      1.65265185	      6.29107309	    -18.81157324	     13.01859309	      9.43670797	     23.70283191	     36.53182613	     -4.41921409	    -10.30053467	    -13.52762961	     -0.43090654	     -7.09812055	      3.76112966	     -1.28669626	     -0.73888442	     15.43899065
      1.26650000	     -5.74638683	      0.09783895	     -9.96795866	      0.06132878	      0.85568477	      0.29780511	    -15.85803618	      1.34758159	      6.03755604	    -19.69791278	     12.24132999	      9.40398424	     27.93894363	     36.63059198	     -4.07609267	    -10.18793948	    -14.18085914	     -0.96704221	     -7.60695393	      4.69253027	     -1.08008942	     -1.13210758	     15.33420517
      1.27066667	     -5.88329185	      0.30809892	     -9.89094091	      0.06781384	      0.85523627	      0.29729160	    -15.57861939	      1.10672107	      5.86178499	    -20.64449175	     11.50174522	      9.29793479	     28.01482937	     36.81212956	     -3.77892653	    -10.06221490	    -14.90675672	     -1.48471998	     -8.08750492	      4.70540878	     -0.83444343	     -1.46569192	     15.19101546
      1.27483333	     -6.00658164	      0.54729258	     -9.79641322	      0.07433255	      0.85485089	      0.29671957	    -15.27896330	      0.82707216	      5.61298367	    -21.64148529	     10.74475939	      9.25579681	     28.18215415	     36.97874562	     -3.43738064	     -9.92474793	    -15.63348097	     -1.95773476	     -8.58831013	      4.72643094	     -0.59642713	     -1.83633014	     15.04163442
      1.27900000	     -6.12643681	      0.79059743	     -9.68299710	      0.08085623	      0.85452139	      0.29610844	    -14.95666267	      0.54394284	      5.33830226	    -22.67478266	      9.94230353	      9.20514830	     28.41410999	     37.15541979	     -3.08533989	     -9.79764705	    -16.39459795	     -2.36685480	     -9.03645819	      4.74862181	     -0.36411659	     -2.21483498	     14.88937931
      1.28316667	     -6.20983061	      1.05322229	     -9.55140677	      0.08741740	      0.85428588	      0.29545885	    -14.65281867	      0.22693135	      5.00093129	    -23.72349611	      9.03708469	      9.16415544	     31.66000408	     37.29649251	     -2.69976295	     -9.67141620	    -17.17359370	     -2.66859856	     -9.45923655	      5.03281812	     -0.17807104	     -2.63459340	     14.75950117
      1.28733333	     -6.31571511	      1.29047519	     -9.41503452	      0.09394123	      0.85407177	      0.29480281	    -14.29655587	     -0.05285370	      4.69748423	    -24.82348014	      8.12781509	      9.10526782	     31.72783865	     37.48046927	     -2.34678991	     -9.54551781	    -18.00592610	     -2.91359396	     -9.81854927	      5.03061958	      0.03057318	     -3.00440274	     14.58418981
      1.29150000	     -6.40971598	      1.54464216	     -9.25880210	      0.10047108	      0.85391116	      0.29410417	    -13.92140275	     -0.35557469	      4.34613264	    -25.97074560	      7.20516518	      9.05318473	     31.83018178	     37.65459337	     -1.96676613	     -9.42232619	    -18.84700418	     -3.10396464	    -10.10786375	      5.02394777	      0.22065766	     -3.39925977	     14.42846753
      1.29566667	     -6.47700176	      1.80442163	     -9.08863888	      0.10700849	      0.85383059	      0.29336165	    -13.54973433	     -0.67703383	      3.95647572	    -27.14827553	      6.24966696	      9.05082708	     32.08549879	     37.79796804	     -1.56317140	     -9.27092762	    -19.69569622	     -3.19538268	    -10.47769731	      5.00204559	      0.37664798	     -3.80770155	     14.23815342
      1.29983333	     -6.48357987	      2.05988957	     -8.90335145	      0.11358184	      0.85389156	      0.29260233	    -13.23776651	     -1.00591115	      3.53836185	    -28.32111778	      5.20185764	      8.96154606	     32.13428200	     37.87608720	     -1.16358100	     -9.19698542	    -20.56463883	     -3.16740619	    -10.57610232	      4.99804613	      0.46352836	     -4.21322502	     14.16025950
      1.30400000	     -6.51599839	      2.31930117	     -8.71225028	      0.12011130	      0.85394579	      0.29181851	    -12.85359152	     -1.34051626	      3.11023611	    -29.56184572	      4.14909894	      8.90388602	     32.19587331	     37.97945826	     -0.75647867	     -9.09013676	    -21.43020288	     -3.10591496	    -10.72668142	      4.99018139	      0.57483995	     -4.62579671	     14.03483265
      1.30816667	     -6.60944359	      2.60057730	     -8.51413281	      0.12656357	      0.85392998	      0.29097175	    -12.34172407	     -1.70237264	      2.66003536	    -30.90262209	      3.16160776	      8.91768195	     32.41813685	     38.13355873	     -0.31583715	     -8.91022722	    -22.24634478	     -3.12780931	    -11.00436690	      4.94558236	      0.74025724	     -5.05058722	     13.76034327
      1.31233333	     -6.60510643	      2.88063447	     -8.30010393	      0.13306685	      0.85410034	      0.29008924	    -11.93860324	     -2.09010700	      2.16420612	    -32.21530854	      2.09121132	      8.93808108	     32.95523675	     38.16879552	      0.14548944	     -8.76536381	    -23.05947999	     -2.98369520	    -11.26877291	      4.81021344	      0.79349412	     -5.49483796	     13.51316596
      1.31650000	     -6.56845783	      3.14673731	     -8.07716405	      0.13955057	      0.85437703	      0.28923371	    -11.55729754	     -2.46336047	      1.67795548	    -33.53248025	      0.92757278	      8.83870153	     33.02093016	     38.15145279	      0.58685505	     -8.66374862	    -23.84732016	     -2.76291676	    -11.24192917	      4.79006237	      0.79602990	     -5.92662847	     13.45641357
      1.32066667	     -6.52275463	      3.40845883	     -7.84874513	      0.14599650	      0.85467622	      0.28832651	    -11.15141901	     -2.85147324	      1.15349449	    -34.89650770	     -0.21040776	      8.75476586	     33.05173840	     38.11754881	      1.02906255	     -8.58484884	    -24.62758896	     -2.49445740	    -11.27772533	      4.77609833	      0.79165846	     -6.31507034	     13.36012851
